<?xml version="1.0" standalone="no"?><!DOCTYPE svg PUBLIC "-//W3C//DTD SVG 1.1//EN" "http://www.w3.org/Graphics/SVG/1.1/DTD/svg11.dtd"><svg t="1611482424317" class="icon" viewBox="0 0 1024 1024" version="1.1" xmlns="http://www.w3.org/2000/svg" p-id="11030" data-spm-anchor-id="a313x.7781069.0.i41" xmlns:xlink="http://www.w3.org/1999/xlink" width="256" height="256"><defs><style type="text/css"></style></defs><path d="M315.924441 714.012476h-10.750879v42.49157h413.652876v-51.194663H315.924441z m0 0" fill="#F8AD4B" p-id="11031"></path><path d="M913.878104 100.700414A85.75106 85.75106 0 0 0 853.468402 76.894896h-233.19169A112.884232 112.884232 0 0 0 539.133171 3.174581 115.187992 115.187992 0 0 0 403.723288 76.894896h-232.935717A84.471194 84.471194 0 0 0 85.548458 159.318303v781.998477A83.959247 83.959247 0 0 0 170.275625 1023.99616H853.468402a83.959247 83.959247 0 0 0 84.727167-82.935354V159.574276a80.887567 80.887567 0 0 0-25.597331-58.617889zM136.743121 967.426058a12.542692 12.542692 0 0 1-3.8396-9.215039V141.912118A13.566586 13.566586 0 0 1 145.19024 128.089559h161.263188v94.710126A59.897756 59.897756 0 0 0 367.119104 283.209387h290.273739a59.897756 59.897756 0 0 0 60.153729-59.641782V128.089559H879.065733a12.798666 12.798666 0 0 1 12.798666 13.054639v816.554874a13.310612 13.310612 0 0 1-13.054639 13.054639H144.678293a13.566586 13.566586 0 0 1-7.935172-3.327653zM469.50843 129.881372V94.301081a42.235597 42.235597 0 0 1 84.471194 0v35.580291h117.235778v109.044632H352.528625V129.625399H469.50843z" fill="#333333" p-id="11032" data-spm-anchor-id="a313x.7781069.0.i37" class="selected"></path><path d="M305.173562 572.20326h413.652876v51.194663H305.173562zM305.173562 439.097136h413.652876v51.194663H305.173562z" fill="#F8AD4B" p-id="11033"></path></svg>